<?xml version="1.0" standalone="no"?>
<svg xmlns="http://www.w3.org/2000/svg" viewBox="0 0 124.392 43.848" width="124.392" height="43.848"><rect fill="none" stroke="#000000" stroke-width="3" width="121.392" height="40.848" x="1.5" y="1.5"></rect><path fill="#000000" fill-rule="nonzero" d="M4.44 19.61L0 19.61L0 0.17L4.22 0.17Q6.38 0.17 7.64 0.83Q8.90 1.49 9.44 2.81Q9.98 4.13 9.98 6.10L9.98 6.10L9.98 13.25Q9.98 15.31 9.44 16.73Q8.90 18.14 7.69 18.88Q6.48 19.61 4.44 19.61L4.44 19.61ZM2.71 2.18L2.71 17.66L4.25 17.66Q5.74 17.66 6.36 17.09Q6.98 16.51 7.12 15.41Q7.25 14.30 7.25 12.74L7.25 12.74L7.25 6.43Q7.25 4.92 7.06 3.98Q6.86 3.05 6.22 2.62Q5.57 2.18 4.18 2.18L4.18 2.18L2.71 2.18ZM17.66 19.82L17.66 19.82Q15.55 19.82 14.42 18.98Q13.30 18.14 12.89 16.62Q12.48 15.10 12.48 13.06L12.48 13.06L12.48 0.17L15.07 0.17L15.07 13.18Q15.07 14.42 15.24 15.46Q15.41 16.49 15.97 17.09Q16.54 17.69 17.66 17.69L17.66 17.69Q18.82 17.69 19.37 17.09Q19.92 16.49 20.09 15.46Q20.26 14.42 20.26 13.18L20.26 13.18L20.26 0.17L22.82 0.17L22.82 13.06Q22.82 15.10 22.42 16.62Q22.01 18.14 20.89 18.98Q19.78 19.82 17.66 19.82ZM30.65 19.82L30.65 19.82Q28.68 19.82 27.50 19.06Q26.33 18.29 25.82 16.86Q25.32 15.43 25.32 13.51L25.32 13.51L25.32 6.14Q25.32 4.22 25.84 2.84Q26.35 1.46 27.52 0.73Q28.68 0 30.65 0L30.65 0Q32.62 0 33.77 0.74Q34.92 1.49 35.44 2.86Q35.95 4.22 35.95 6.14L35.95 6.14L35.95 13.54Q35.95 15.43 35.44 16.85Q34.92 18.26 33.77 19.04Q32.62 19.82 30.65 19.82ZM30.65 17.69L30.65 17.69Q31.73 17.69 32.28 17.24Q32.83 16.80 33.02 16.00Q33.22 15.19 33.22 14.11L33.22 14.11L33.22 5.59Q33.22 4.51 33.02 3.73Q32.83 2.95 32.28 2.53Q31.73 2.11 30.65 2.11L30.65 2.11Q29.57 2.11 29.00 2.53Q28.44 2.95 28.25 3.73Q28.06 4.51 28.06 5.59L28.06 5.59L28.06 14.11Q28.06 15.19 28.25 16.00Q28.44 16.80 29.00 17.24Q29.57 17.69 30.65 17.69ZM51.79 19.61L44.11 19.61L44.11 0.17L46.82 0.17L46.82 17.66L51.79 17.66L51.79 19.61ZM56.45 19.61L53.78 19.61L53.78 0.17L56.45 0.17L56.45 19.61ZM65.35 19.61L62.98 19.61L58.63 0.17L61.18 0.17L64.25 14.50L67.18 0.17L69.65 0.17L65.35 19.61ZM74.52 19.61L71.86 19.61L71.86 0.17L74.52 0.17L74.52 19.61ZM79.97 19.61L77.66 19.61L77.66 0.17L79.51 0.17L85.03 13.08L85.03 0.17L87.29 0.17L87.29 19.61L85.56 19.61L79.97 6.34L79.97 19.61ZM94.97 19.85L94.97 19.85Q93.14 19.85 92.05 19.07Q90.96 18.29 90.47 16.80Q89.98 15.31 89.98 13.22L89.98 13.22L89.98 6.72Q89.98 4.58 90.42 3.08Q90.86 1.58 92.00 0.79Q93.14 0 95.18 0L95.18 0Q97.01 0 98.12 0.61Q99.24 1.22 99.74 2.48Q100.25 3.74 100.25 5.66L100.25 5.66L100.25 6.38L97.70 6.38L97.70 5.78Q97.70 4.51 97.54 3.71Q97.37 2.90 96.85 2.51Q96.34 2.11 95.23 2.11L95.23 2.11Q94.03 2.11 93.49 2.66Q92.95 3.22 92.82 4.16Q92.69 5.11 92.69 6.31L92.69 6.31L92.69 13.51Q92.69 14.90 92.89 15.84Q93.10 16.78 93.67 17.23Q94.25 17.69 95.30 17.69L95.30 17.69Q96.36 17.69 96.94 17.18Q97.51 16.68 97.73 15.70Q97.94 14.71 97.94 13.25L97.94 13.25L97.94 11.90L95.47 11.90L95.47 9.98L100.39 9.98L100.39 19.61L98.69 19.61L98.42 17.38Q98.04 18.46 97.22 19.15Q96.41 19.85 94.97 19.85Z" transform="translate(12 12)"></path></svg>